<?xml version="1.0" encoding="UTF-8"?>
<svg version="1.1" viewBox="0 0 2048 1157" width="559" height="316" xmlns="http://www.w3.org/2000/svg">
<path transform="translate(1720,25)" d="m0 0h13l7 4 271 271 1 5v541l-1 10-9 10-262 262-5 3-4 1h-11l-9-6-267-267-4-7v-547l5-8 269-269zm6 73-17 50-97 291 341 341 1-3-50-150-13-38-14-43-24-72-16-47-16-49-17-50-14-43-13-38-36-108-12-37-1-4zm41 9 3 10 129 387 12 35 14 43 36 108 12 35 4 10h1v-418l-9-10-8-8h-2l-1-3-5-5-8-7-6-7-5-4-6-7-5-4-6-7h-2l-1-3h-2l-2-4-4-4h-2l-1-3-5-5-8-7-5-6-6-5-2-3h-2l-1-3-6-5-5-6-6-5-5-5-7-8-8-7-64-64zm-83 1-198 198-3 2 1 4 53 53h2l2 4 3 3h2v2l7 6 2 3h2v2l8 7 19 19 2-2 14-43 80-240 5-14zm-209 245v383l2-2 12-36 17-50 66-198-3-5-3-3h-2l-2-4h-2v-2l-23-23h-2l-2-4-7-7h-2l-2-4-7-7h-2l-2-4-7-7h-2l-2-4-7-7-5-4-3-4h-2l-1-3h-2l-2-4zm124 124-12 37-12 35-14 43-12 35-13 40-14 41-43 129-1 6 244 244h2v2l4 1 242-242-2-4-366-366z" fill="currentColor"/>
<path transform="translate(107,837)" d="m0 0 26 1 9 21 36 90 17 43 1 7-5 1h-32l-4-9-9-25-3-1h-59l-3 11-7 20-3 4h-33l-2-1 1-10 14-36 12-29 11-28 18-45 5-12 1-1zm8 39-4 10-16 48 1 2h39l-1-8-14-41-4-11z" fill="currentColor"/>
<path transform="translate(754,566)" d="m0 0h2l1 2v173l-7 3-23 4-9 1h-23l-16-4-14-7-12-12-8-16-3-12-1-9v-11l3-18 6-15 8-11 10-8 12-5 4-1h24l12 3 1-1 1-24 11-11 7-8 10-10zm-55 83-10 3-7 8-4 13v19l4 13 6 8 9 5 5 1h14l5-2 1-2v-59l-4-4-12-3z" fill="currentColor"/>
<path transform="translate(317,581)" d="m0 0h15l19 3 19 7 1 5-8 22-1 2-6-1-16-5-8-1h-13l-9 2-5 4-2 5 1 8 6 7 16 7 25 10 11 7 9 8 5 9 3 9 1 14-2 13-4 10-11 12-12 6-16 4-8 1h-23l-18-3-19-6-4-3 1-6 7-20 1-2 6 1 15 5 13 2h17l9-2 6-4 2-2 1-10-3-7-5-4-17-8-19-7-13-7-10-9-6-9-3-10v-8l5-7 8-7 33-33z" fill="currentColor"/>
<path transform="translate(839,619)" d="m0 0 17 1 13 4 10 6 9 9 8 16 3 16v22l-1 2-78 1 3 9 5 6 10 5 10 2h12l19-3 8-1 2 7 2 12v9l-14 4-19 3h-20l-14-3-12-5-10-7-9-10-6-13-4-17v-18l3-15 5-12 8-11 7-7 9-6 10-4zm-1 29-8 3-7 8-3 8 1 4 4 1h38l2-1-1-8-3-6-5-5-5-3-4-1z" fill="currentColor"/>
<path transform="translate(1114,873)" d="m0 0h23l13 4 11 6 10 9 7 10 5 12 3 15v15l-3 17-5 12-7 10-8 8-10 6-12 4-5 1h-22l-12-3-14-8-5-4v-2h-2l-9-13-6-16-2-12v-12l2-13 5-14 7-11 10-10 12-7zm5 30-8 4-6 7-4 12-1 7 1 16 4 11 6 8 9 4h11l8-4 6-7 3-7 2-9v-15l-3-13-6-9-6-4-4-1z" fill="currentColor"/>
<path transform="translate(491,873)" d="m0 0h24l13 4 11 6 10 9 8 13 5 14 1 5v27l-4 15-5 10-6 8-10 9-12 6-13 3h-22l-14-4-10-6-10-9-7-11-5-12-3-14v-17l3-14 5-12 6-9 7-8 11-7 12-5zm6 30-7 3-5 5-5 10-2 8v17l4 13 6 8 4 3 6 2h11l8-4 5-6 4-9 2-13-1-15-5-13-8-7-5-2z" fill="currentColor"/>
<path transform="translate(804,873)" d="m0 0h29l12 3 12 6 7 7 5 10 2 7 1 9v80l-6 2-17 3-23 2h-13l-16-2-12-4-11-8-6-10-2-8v-17l4-11 8-9 10-6 9-3 7-1h28l7 1-4-13-4-5-8-3h-22l-18 3-2-1-4-17v-9l9-3zm12 73-10 3-4 5-1 2v9l4 6 6 3 6 1h12l8-1 1-1v-25l-6-2z" fill="currentColor"/>
<path transform="translate(1241,873)" d="m0 0h30l13 3 11 6 5 4 6 9 5 12 2 21v71l-4 1h-30l-2-6-1-73-3-10-5-5-5-2h-22v94l-4 2h-30l-2-2v-117l2-2 25-5z" fill="currentColor"/>
<path transform="translate(510,622)" d="m0 0h34l1 2 1 76 3 10 5 6 7 2h15l4-1 1-94 1-1h34l1 7v111l-3 3-21 4-16 2h-25l-13-3-10-5-9-8-6-11-3-9-2-18v-71z" fill="currentColor"/>
<path transform="translate(959,620)" d="m0 0h29l14 3 12 7 8 9 5 11 2 9 1 12v75h-35l-1-21v-41l-1-18-3-8-4-5-5-2h-23v95h-35v-119l9-3 17-3z" fill="currentColor"/>
<path transform="translate(367,873)" d="m0 0h27l16 3 8 3-2 13-4 13-8-1-13-2h-16l-6 3-2 6 3 5 12 6 17 7 13 8 7 8 3 6 2 9v10l-2 8-4 8-7 7-12 6-14 3h-30l-15-3-10-3-1-5 5-23 3-1 15 4 13 2h13l9-3 1-7-5-5-15-7-16-7-9-6-6-7-4-8-1-5v-15l4-11 7-8 5-4 10-5z" fill="currentColor"/>
<path transform="translate(251,873)" d="m0 0h28l15 3 8 3-1 9-4 16-5 1-16-3h-16l-7 3-1 2v6l4 4 15 7 16 7 10 7 5 5 4 7 2 8v14l-3 9-6 9-11 7-13 4-6 1h-30l-15-3-10-4-1-4 5-22 4-2 14 4 13 2h13l9-3 1-7-4-5-23-10-14-7-7-6-5-8-3-11v-12l4-12 9-10 14-7z" fill="currentColor"/>
<path transform="translate(1215,619)" d="m0 0 18 1 15 3 6 3-1 10-4 15-4 1-14-3-16-1-9 3-2 3 1 7 8 5 27 12 11 8 6 8 3 9v17l-4 10-7 8-5 4-14 5-12 2h-24l-20-4-8-3v-7l4-20 4-1 16 4 6 1h22l5-2 2-6-3-5-14-7-19-8-9-6-7-8-4-10-1-12 2-11 5-9 10-9 12-5z" fill="currentColor"/>
<path transform="translate(435,589)" d="m0 0 4 1v32h41l1 1v28l-32 1h-9v51l4 11 5 3 4 1h14l9-2h5l5 23-1 4-12 4-12 2h-19l-15-4-9-6-8-9-5-14-2-21v-73l7-8z" fill="currentColor"/>
<path transform="translate(1123,147)" d="m0 0h22l20 3 7 2 2 5v81l-1 24-3 13-6 9-8 7-11 5-16 3h-15l-20-3-8-3-1-3 3-13 3-1 17 4 18 1 14-3 6-4 4-5 3-11 1-9-11 4-8 2h-16l-12-3-10-6-8-8-7-14-3-12v-20l3-12 6-12 9-10 10-6 10-4zm5 17-9 2-9 6-6 8-4 13v19l4 12 8 9 8 4 4 1h11l11-3 6-3 2-2v-62l-2-2-14-2z" fill="currentColor"/>
<path transform="translate(1089,589)" d="m0 0h3v33h41l1 1v28l-30 1h-11v48l3 12 6 5 4 1h14l10-2 5 1 4 21-1 5-12 4-11 2h-20l-12-3-11-6-8-9-5-12-2-10v-89l30-30z" fill="currentColor"/>
<path transform="translate(931,846)" d="m0 0 4 1 1 29h40l1 1v27l-1 1-40 1v46l2 10 3 5 4 3 4 1h16l11-2 3 7 2 10v10l-7 3-16 3h-19l-13-3-10-6-5-4-6-10-4-13-1-9v-80l7-8 20-20z" fill="currentColor"/>
<path transform="translate(634,873)" d="m0 0h25l16 4 6 3 1 4-6 17-4 6-13-3h-18l-10 4-7 8-4 11-1 7v9l3 13 5 8 5 4 10 3h19l15-3 3 6 2 11v11l-6 3-15 3h-27l-15-4-10-5-11-9-7-11-5-12-2-9-1-15 2-17 4-12 8-13 10-10 11-7 12-4z" fill="currentColor"/>
<path transform="translate(465,96)" d="m0 0h7v160l-12 3-26 3-16-1-13-4-10-6-9-9-6-11-4-12-1-7v-16l3-15 5-12 8-10 11-8 13-4h19l9 2 9 4v-54zm-44 68-11 4-8 8-4 9-2 11v17l3 11 5 9 8 7 7 3 5 1h19l8-2 1-1v-69l-12-6-7-2z" fill="currentColor"/>
<path transform="translate(732,96)" d="m0 0h7v57l14-5 5-1h19l10 3 11 7 7 7 5 8 5 16 1 6v20l-4 16-5 9-9 10-8 6-13 5-18 2-22-2-15-3-3-2v-156zm26 68-13 4-6 4v70l11 2h17l10-3 8-6 6-8 4-13v-20l-3-12-6-10-9-6-8-2z" fill="currentColor"/>
<path transform="translate(183,352)" d="m0 0 19 1 1 95 3 16 6 9 7 6 8 3 14 1 12-3 9-6 5-7 3-9 1-7 1-98 4-1 17 1v93l-2 18-4 11-7 10-7 7-14 7-14 3h-18l-13-3-10-5-10-9-6-9-5-14-1-6v-103z" fill="currentColor"/>
<path transform="translate(251,113)" d="m0 0h89l1 1v15l-1 1h-68v44h61v16l-1 1h-60v50h72l2 1v16l-1 1h-93l-1-5z" fill="currentColor"/>
<path transform="translate(1235,96)" d="m0 0h6v54l9-2 9-1h17l11 3 10 6 6 7 5 11 2 10v74l-1 1h-18l-1-55-1-18-3-10-3-5-6-4-15-2-15 2-6 1v91h-19l-1-6v-154l8-2z" fill="currentColor"/>
<path transform="translate(722,386)" d="m0 0 15 1 13 5 8 6 7 11 4 12 2 16v12l-8 1h-67l2 11 6 12 7 6 8 3 6 1h14l17-3h5l1 5v11l-9 3-11 2h-25l-11-3-10-5-9-8-6-9-5-14-1-6v-24l4-14 6-12 7-8 11-7 11-4zm-2 17-9 3-7 6-5 8-3 9v4h54l-1-10-4-10-8-7-4-2z" fill="currentColor"/>
<path transform="translate(1214,389)" d="m0 0h20l3 7 9 30 7 20 11 27 2 2 10-30 14-54 1-2h20l-1 7-12 43-14 41-10 24-8 15-11 12-12 6-5 1h-20l-7-2 1-10 2-6 7 1h14l10-4 8-9 3-6-3-9-15-31-11-28-11-33-2-7z" fill="currentColor"/>
<path transform="translate(370,387)" d="m0 0h26l13 4 10 7 7 11 3 11 1 12v66l-1 1h-18l-1-1-1-65-2-13-4-8-6-5-12-2-24 1v92l-1 1h-18l-1-1v-105l9-3z" fill="currentColor"/>
<path transform="translate(618,147)" d="m0 0h24l9 2 8 4 9 8 6 12 2 8 1 13v64l-1 1h-19l-1-67-2-12-4-8-5-4-6-2-7-1-19 1-4 1-1 91-1 1h-19v-106l9-3z" fill="currentColor"/>
<path transform="translate(854,149)" d="m0 0h18l2 3v56l2 19 4 8v2l10 5 5 1h15l12-1v-92l1-1h18l1 1v106l-21 4-9 1h-25l-12-4-6-4-7-7-6-12-2-11-1-41z" fill="currentColor"/>
<path transform="translate(1008,875)" d="m0 0h32l2 2v122l-7 2h-27l-3-1v-123z" fill="currentColor"/>
<path transform="translate(708,875)" d="m0 0h28l7 2v121l-3 2h-32l-1-1v-123z" fill="currentColor"/>
<path transform="translate(956,386)" d="m0 0 18 1 15 4-1 9-3 8-18-4h-14l-10 4-3 4v8l3 6 16 8 18 8 9 6 6 7 3 7v16l-4 9-5 5-5 4-12 4-5 1h-27l-17-4-2-2 1-9 2-7 18 4 18 1 10-2 5-3 2-3v-9l-4-6-15-8-19-8-9-7-6-8-2-8v-8l3-10 6-8 9-6 10-3z" fill="currentColor"/>
<path transform="translate(1131,356)" d="m0 0h7v33h41v16l-1 1h-40l1 62 3 8 5 5 7 2h9l12-3h5l2 7 1 9-12 4-6 1h-20l-10-3-8-6-6-10-2-6-1-8v-109l6-2z" fill="currentColor"/>
<path transform="translate(542,389)" d="m0 0h20l2 2 8 29 8 24 11 29 2-2 10-27 11-33 6-21 1-1h19l1 2-10 33-10 27-11 27-8 18-3 3h-16l-4-6-11-25-15-39-9-29-2-7z" fill="currentColor"/>
<path transform="translate(1019,147)" d="m0 0h21l12 2 1 4-3 13-4 1-10-2h-16l-9 2-1 91-1 1h-18l-1-1v-104l16-5z" fill="currentColor"/>
<path transform="translate(850,387)" d="m0 0h22l11 2 1 5-2 11-1 1-14-1h-15l-10 1v92l-1 1h-19v-105l7-3 13-3z" fill="currentColor"/>
<path transform="translate(480,389)" d="m0 0h19l1 1v108l-1 1h-18l-1-1z" fill="currentColor"/>
<path transform="translate(1044,389)" d="m0 0h18l1 1v108l-1 1h-18l-1-1v-108z" fill="currentColor"/>
<path transform="translate(521,149)" d="m0 0h18l1 1v108l-1 1h-18l-1-1v-108z" fill="currentColor"/>
<path transform="translate(1273,563)" d="m0 0h39l-2 11-12 36-4 9-3-1-6-14-13-38z" fill="currentColor"/>
<path transform="translate(1038,821)" d="m0 0h5l1 3v33l-2 5-12 1h-24l-2-1v-7l9-10 22-22z" fill="currentColor"/>
<path transform="translate(739,821)" d="m0 0 5 1 1 5v32l-2 2h-35l-4-4 4-6 28-28z" fill="currentColor"/>
<path transform="translate(525,104)" d="m0 0h10l6 5 2 5-1 8-5 6-5 2-9-2-5-5-1-2v-9l4-6z" fill="currentColor"/>
<path transform="translate(1048,344)" d="m0 0h10l6 5 2 9-3 7-5 4h-10l-6-4-2-4v-9l3-5z" fill="currentColor"/>
<path transform="translate(485,344)" d="m0 0h9l5 3 3 4 1 6-3 8-6 4h-9l-5-3-3-4-1-7 4-8z" fill="currentColor"/>
</svg>
