<?xml version="1.0" encoding="UTF-8"?>
<svg version="1.1" viewBox="0 0 2048 820" width="904" height="362" xmlns="http://www.w3.org/2000/svg">
<path transform="translate(1047)" d="m0 0h26l28 3 24 4 17 5 24 9 1 2-9-1-24-5-31-4-17-1h-30l-21 2-22 4-22 6-24 10-19 11-16 12-12 11-11 12-9 14-7 17-3 11-1 9v17l3 15 5 12 7 11 9 10 10 8 15 9 15 7 21 7 23 5 24 3 30 2h10l20-2 2-4 14-19 22-28 9-11 12-14 11-13 14-15 12-13 23-23 8-7 12-11 10-8 14-11 17-12 13-8 16-9 24-10 15-4 12-2h23l11 3 9 5 7 7 5 13v15l-5 19-10 19-10 14-13 15-13 13-11 9-11 10-16 12-20 14-20 12-18 10-22 11-27 11-20 7-26 8-28 7-9 3-12 20-13 20-16 23-14 19-11 14-12 14-11 12-7 8-16 16-8 7-13 11-19 14-18 11-18 10-21 9-24 8-25 6-19 3-31 2h-14l-29-2-20-4-20-7-16-9-12-11-6-8-5-11-2-11v-8l3-13 6-11 9-10 9-7 12-6 4-1h20l8 4 5 6 2 5v11l-3 8-7 7-10 3-10-1-11-4h-12l-5 5-2 6v10l4 11 5 7 13 9 13 6 16 5 18 3 11 1h31l23-3 20-5 20-7 20-9 22-13 18-13 26-22 22-22 9-11 10-11 26-34 14-20 10-15 12-19 2-3-44-2-30-4-19-4-21-6-20-8-18-10-13-10-14-14-9-14-6-15-2-8v-36l6-21 8-16 7-11 9-11 8-9 11-9 14-11 17-10 19-9 22-7 12-3 19-3zm291 26-19 5-16 7-18 11-15 11-11 9-12 11-13 12-16 17-10 11-9 11-13 16-10 13-13 18-12 17-22 33 3 1 26-6 29-9 29-12 30-15 20-12 15-10 14-10 14-11 14-12 8-8 5-4 7-8 10-11 12-17 7-12 5-14 1-13-3-9-8-7-8-3z" fill="currentColor"/>
<path transform="translate(828,536)" d="m0 0 5 1 10 9 16 16 7 8 13 13 7 8 9 10 15 16 12 13 14 15 7 8 32 34 7 8 15 15 7 8 23 23 10 8-1-10-1-93-1-47-1-24v-33h21l14-1-1 44-1 18-1 41-1 172-1 4-5-1-14-12-15-15-8-7-4-4v-2h-2l-7-8-12-12-7-8-11-12-14-15-18-20-7-8-14-15-7-8-10-11-7-8-12-13-13-15-7-7-7-8-6-7v90l1 64 2 48v7l-2 1h-34l3-155 1-120z" fill="currentColor"/>
<path transform="translate(512,540)" d="m0 0h17l23 2 16 3 16 6 11 7 7 6 9 12 6 13 3 11 1 7v13l-4 20-6 14-10 14-9 10-13 10-3 2 12 16 11 14 12 15 11 14 11 13 12 14 12 13 10 10 17 13v2l-5 1h-33l-11-4-8-6-12-11-12-13-11-14-13-17-13-18-14-19-7-10-54-1v37l1 43 1 22 1 9-2 1h-39v-15l1-28v-194l-2-30-1-6h30zm-10 21-10 1-2 2v113l6 2 23 2h27l10-3 8-6 9-9 8-14 4-16v-21l-2-10-5-12-8-11-10-8-13-6-18-4z" fill="currentColor"/>
<path transform="translate(1701,540)" d="m0 0h17l17 1 22 4 16 6 9 6 10 9 9 12 6 14 3 15v13l-3 16-5 13-6 11-9 11-10 10-12 9 12 16 14 18 11 14 18 22 13 15 11 12 13 13 16 12v2l-5 1h-34l-12-5-11-9-13-13-9-11-13-16-14-19-13-18-14-19-5-3h-45l-6-1 1 56 2 56-41 1 1-14 2-72v-110l-2-59-2-17 3-1h27zm-10 21-10 1-2 1v114l6 2 23 2h27l10-3 9-7 7-7 8-14 4-11 1-7v-19l-3-14-6-12-8-10-14-9-11-4-15-3z" fill="currentColor"/>
<path transform="translate(1266,536)" d="m0 0h36l21 2 27 5 27 7-1 14-3 24-4-2-8-6-16-8-18-6-19-4-22-2h-24l-21 3-21 7-17 9-13 11-10 12-9 15-7 19-3 13-1 14v14l1 15 6 25 6 15 9 15 8 10 9 9 13 9 15 8 18 6 21 4 12 1h23l19-2 16-5 2-1v-73l-2-27-1-7h26l15-1-1 125-9 4-21 6-32 5-15 1h-31l-21-2-27-6-18-7-14-7-15-10-12-11-10-10-10-14-8-15-7-19-3-12-3-21v-19l4-25 5-17 9-19 10-14 9-11 10-9 14-10 16-9 15-6 22-6 17-3z" fill="currentColor"/>
<path transform="translate(1582,540)" d="m0 0h1l-2 32-9-2-20-3-22-1-46-1v93l62-1 24-1 7-1-3 32-18-4-9-1-63-1 1 91 1 16 11 2h70l18-3 8-2-2 10-4 17-2 3h-69l-27-1h-43l-1-4 1-7 1-21 1-49v-116l-1-46-2-30 42 1 86-1z" fill="currentColor"/>
<path transform="translate(81,536)" d="m0 0h25l14 1 29 5-3 34v2l-4-2-10-7-14-6-14-3h-24l-13 4-10 6-6 7-4 8-1 4v22l4 11 7 9 9 9 17 12 20 12 11 8 10 8 10 9 8 9 8 14 4 16v24l-4 15-8 16-9 12h-2v2l-11 8-14 7-14 4-9 2-11 1h-19l-18-2-19-5-14-6-2-4 1-5 2-30 7 6 12 9 14 7 13 4 6 1h22l12-3 12-6 7-6 6-10 3-9v-24l-5-13-7-9-9-9-27-18-14-9-13-10-12-11-9-12-7-14-3-12v-24l3-12 8-16 11-12 10-7 14-7 14-4z" fill="currentColor"/>
<path transform="translate(1972,536)" d="m0 0h25l14 1 28 5-2 36-4-2-10-7-14-6-14-3h-24l-13 4-10 6-6 7-5 12-1 4v13l3 12 6 10 12 12 14 10 16 10 18 12 10 8 10 9 8 9 7 12 4 13 2 14-1 14-4 16-8 16-8 10-7 7-10 7-11 5-14 4-9 2-11 1h-19l-18-2-19-5-12-5-3-2 1-22 1-16h2l7 8 15 10 15 6 13 3h22l10-2 14-7 5-4 7-10 4-12 1-12-2-13-3-9-7-10-9-9-17-12-19-12-17-12-12-11-7-8-8-13-4-10-3-15v-13l4-18 8-15 9-10 10-8 16-8 15-4z" fill="currentColor"/>
<path transform="translate(1341,13)" d="m0 0h23l11 3 9 5 7 7 5 13v15l-5 19-10 19-10 14-13 15-13 13-11 9-11 10-16 12-20 14-20 12-18 10-22 11-27 11-20 7-26 8-24 6h-8l-5 1h-28l-10-4-6-2 1-3 6-1-1-2h2l2-4 14-19 22-28 9-11 12-14 11-13 14-15 12-13 23-23 8-7 12-11 10-8 14-11 17-12 13-8 16-9 24-10 15-4zm-3 13-19 5-16 7-18 11-15 11-11 9-12 11-13 12-16 17-10 11-9 11-13 16-10 13-13 18-12 17-22 33 3 1 26-6 29-9 29-12 30-15 20-12 15-10 14-10 14-11 14-12 8-8 5-4 7-8 10-11 12-17 7-12 5-14 1-13-3-9-8-7-8-3z" fill="currentColor"/>
<path transform="translate(185,539)" d="m0 0 26 2 64 1h36l80-1 29-1-3 20-1 13-18-4-25-2-56-2v188l1 48 1 12-41 1 2-96v-153l-45 1-34 2-22 3 5-30z" fill="currentColor"/>
<path transform="translate(715,541)" d="m0 0h41v17l-1 31v185l1 25v15h-40v-12l1-20v-207l-2-29-1-4z" fill="currentColor"/>
<path transform="translate(1047)" d="m0 0h26l28 3 24 4 17 5 24 9 1 2-9-1-24-5-31-4-17-1h-30l-21 2-22 4-22 6-24 10-19 11-16 12-12 11-11 12-9 14-7 17-3 11-1 9v17l3 15 5 12 7 11 9 10 10 8 11 7 4 4 20 9 21 6 13 3v1h-7l-27-7-7-3-13-2-7 3-12-6-10-7-5-2-15-15-9-14-6-15-2-8v-36l6-21 8-16 7-11 9-11 8-9 11-9 14-11 17-10 19-9 22-7 12-3 19-3z" fill="currentColor"/>
<path transform="translate(933,212)" d="m0 0 5 1 15 7 21 7 23 5 6 1 1 3h-8l-4-1v-2l-9-1-19-5-20-8-11-6z" fill="currentColor"/>
<path transform="translate(1149,16)" d="m0 0 6 1 11 4 1 2-9-1-10-3z" fill="currentColor"/>
<path transform="translate(992,232)" d="m0 0 11 1 1 3h-8l-4-1z" fill="currentColor"/>
</svg>
